<svg width="1920" height="1080" xmlns="http://www.w3.org/2000/svg">
  <defs>
    <linearGradient id="skyGrad" x1="0%" y1="0%" x2="0%" y2="100%">
      <stop offset="0%" style="stop-color:#0d365e;stop-opacity:1" />
      <stop offset="100%" style="stop-color:#081f3a;stop-opacity:1" />
    </linearGradient>
  </defs>
  
  <!-- Sky -->
  <rect width="1920" height="1080" fill="url(#skyGrad)"/>
  
  <!-- Cityscape silhouette -->
  <rect x="0" y="700" width="300" height="380" fill="#0a2540" opacity="0.6"/>
  <rect x="320" y="600" width="250" height="480" fill="#0a2540" opacity="0.7"/>
  <rect x="590" y="550" width="200" height="530" fill="#0a2540" opacity="0.8"/>
  <rect x="810" y="400" width="280" height="680" fill="#0a2540" opacity="0.9"/>
  <rect x="1110" y="450" width="220" height="630" fill="#0a2540" opacity="0.8"/>
  <rect x="1350" y="520" width="200" height="560" fill="#0a2540" opacity="0.7"/>
  <rect x="1570" y="650" width="180" height="430" fill="#0a2540" opacity="0.6"/>
  <rect x="1770" y="720" width="150" height="360" fill="#0a2540" opacity="0.5"/>
  
  <!-- Windows - add lights -->
  <rect x="340" y="620" width="8" height="12" fill="#c3ad95" opacity="0.6"/>
  <rect x="360" y="620" width="8" height="12" fill="#c3ad95" opacity="0.8"/>
  <rect x="380" y="620" width="8" height="12" fill="#c3ad95" opacity="0.4"/>
  <rect x="340" y="645" width="8" height="12" fill="#c3ad95" opacity="0.7"/>
  <rect x="360" y="645" width="8" height="12" fill="#c3ad95" opacity="0.5"/>
  <rect x="380" y="645" width="8" height="12" fill="#c3ad95" opacity="0.9"/>
  
  <rect x="620" y="570" width="8" height="12" fill="#c3ad95" opacity="0.7"/>
  <rect x="640" y="570" width="8" height="12" fill="#c3ad95" opacity="0.5"/>
  <rect x="660" y="570" width="8" height="12" fill="#c3ad95" opacity="0.8"/>
  
  <rect x="850" y="420" width="10" height="15" fill="#c3ad95" opacity="0.9"/>
  <rect x="875" y="420" width="10" height="15" fill="#c3ad95" opacity="0.6"/>
  <rect x="900" y="420" width="10" height="15" fill="#c3ad95" opacity="0.8"/>
  <rect x="850" y="450" width="10" height="15" fill="#c3ad95" opacity="0.7"/>
  <rect x="875" y="450" width="10" height="15" fill="#c3ad95" opacity="0.9"/>
  <rect x="900" y="450" width="10" height="15" fill="#c3ad95" opacity="0.5"/>
</svg>
