<?xml version="1.0" encoding="UTF-8"?>
<svg id="Layer_2" data-name="Layer 2" xmlns="http://www.w3.org/2000/svg" viewBox="0 0 836.57 350">
  <defs>
    <style>
      .cls-1 {
        fill: #fff;
      }
    </style>
  </defs>
  <g id="Layer_1-2" data-name="Layer 1">
    <g>
      <polygon class="cls-1" points="0 0 0 342.46 230.48 342.46 230.48 324.04 18.45 324.04 18.45 18.43 818.13 18.43 818.13 324.04 606.09 324.04 606.09 342.46 836.57 342.46 836.57 0 0 0"/>
      <g>
        <path class="cls-1" d="M260.47,349.34v-33.16h14.4c2.08,0,3.9.36,5.45,1.09,1.55.73,2.75,1.75,3.6,3.08.85,1.33,1.28,2.89,1.28,4.69v.57c0,1.99-.47,3.6-1.42,4.83-.95,1.23-2.12,2.13-3.51,2.7v.85c1.26.06,2.24.5,2.94,1.3.69.81,1.04,1.87,1.04,3.2v10.85h-6.25v-9.95c0-.76-.2-1.37-.59-1.85-.4-.47-1.05-.71-1.97-.71h-8.72v12.51h-6.25ZM266.72,331.14h7.49c1.48,0,2.64-.4,3.48-1.21.84-.81,1.26-1.87,1.26-3.2v-.47c0-1.33-.41-2.39-1.23-3.2-.82-.81-1.99-1.21-3.51-1.21h-7.49v9.29Z"/>
        <path class="cls-1" d="M294.2,349.34v-33.16h21.32v5.69h-15.07v7.91h13.74v5.69h-13.74v8.2h15.35v5.69h-21.6Z"/>
        <path class="cls-1" d="M321.97,349.34l8.72-33.16h10.9l8.72,33.16h-6.44l-1.8-7.3h-11.84l-1.8,7.3h-6.44ZM331.68,336.26h8.91l-4.03-16.16h-.85l-4.03,16.16Z"/>
        <path class="cls-1" d="M358.07,349.34v-33.16h6.25v27.48h15.16v5.69h-21.41Z"/>
        <path class="cls-1" d="M401.94,349.34v-33.16h21.32v5.69h-15.07v7.91h13.74v5.69h-13.74v8.2h15.35v5.69h-21.6Z"/>
        <path class="cls-1" d="M443.49,350c-2.56,0-4.82-.46-6.78-1.37-1.96-.92-3.49-2.23-4.6-3.93-1.11-1.71-1.66-3.76-1.66-6.16v-1.33h6.16v1.33c0,1.99.62,3.48,1.85,4.48,1.23,1,2.91,1.49,5.02,1.49s3.75-.43,4.81-1.28c1.06-.85,1.59-1.94,1.59-3.27,0-.92-.26-1.66-.78-2.23-.52-.57-1.28-1.03-2.27-1.4-.99-.36-2.2-.7-3.62-1.02l-1.09-.24c-2.27-.51-4.22-1.14-5.85-1.92-1.63-.77-2.87-1.79-3.74-3.06-.87-1.26-1.3-2.91-1.3-4.93s.48-3.75,1.45-5.19c.96-1.44,2.32-2.54,4.07-3.32,1.75-.77,3.81-1.16,6.18-1.16s4.48.4,6.32,1.21c1.85.81,3.3,2.01,4.36,3.6,1.06,1.6,1.59,3.59,1.59,5.99v1.42h-6.16v-1.42c0-1.26-.25-2.28-.73-3.06-.49-.77-1.19-1.34-2.11-1.71-.92-.36-2.01-.54-3.27-.54-1.9,0-3.29.36-4.19,1.07-.9.71-1.35,1.68-1.35,2.91,0,.82.21,1.52.64,2.08.43.57,1.07,1.04,1.92,1.42.85.38,1.94.71,3.27,1l1.09.24c2.37.51,4.43,1.15,6.18,1.94,1.75.79,3.12,1.83,4.1,3.13.98,1.3,1.47,2.95,1.47,4.97s-.51,3.8-1.54,5.33c-1.03,1.53-2.48,2.73-4.36,3.6-1.88.87-4.1,1.3-6.66,1.3Z"/>
        <path class="cls-1" d="M471.11,349.34v-27.48h-9.67v-5.69h25.58v5.69h-9.67v27.48h-6.25Z"/>
        <path class="cls-1" d="M489.78,349.34l8.72-33.16h10.9l8.72,33.16h-6.44l-1.8-7.3h-11.84l-1.8,7.3h-6.44ZM499.49,336.26h8.91l-4.03-16.16h-.85l-4.03,16.16Z"/>
        <path class="cls-1" d="M530.52,349.34v-27.48h-9.67v-5.69h25.58v5.69h-9.67v27.48h-6.25Z"/>
        <path class="cls-1" d="M554.5,349.34v-33.16h21.32v5.69h-15.07v7.91h13.74v5.69h-13.74v8.2h15.35v5.69h-21.6Z"/>
      </g>
      <g>
        <path class="cls-1" d="M213.34,237.84v1.69h-33.45l-34.3-49.75h-11.5v49.75h-29.09V102.93h45.74c12.08,0,22.17,1.86,30.25,5.59,8.08,3.73,14.09,8.78,18.02,15.18,3.93,6.4,5.9,13.67,5.9,21.82,0,9.56-2.39,17.81-7.17,24.77-4.78,6.96-11.8,12.12-21.08,15.49l36.68,52.07ZM134.08,167.23h13.14c8.61,0,15.25-1.61,19.92-4.85,4.66-3.23,7-8.57,7-16.02,0-6.46-2.08-11.31-6.25-14.55-4.16-3.23-9.98-4.85-17.44-4.85h-16.37v40.26Z"/>
        <path class="cls-1" d="M252.23,233.42c-10.19-6.04-17.89-14.44-23.08-25.19-5.2-10.75-7.8-23.22-7.8-37.42,0-15.74,3.16-28.91,9.49-39.53,6.32-10.61,14.72-18.48,25.19-23.61,10.47-5.13,22.1-7.69,34.89-7.69,14.62,0,27.02,3.02,37.21,9.06,10.19,6.04,17.85,14.44,22.98,25.19,5.13,10.75,7.69,23.22,7.69,37.42,0,15.74-3.13,28.92-9.38,39.53-6.25,10.61-14.62,18.48-25.08,23.61-10.47,5.13-22.1,7.69-34.89,7.69-14.62,0-27.02-3.02-37.21-9.06ZM310.62,212.44c5.83-3.72,10.19-9.06,13.07-16.02,2.88-6.96,4.32-15.14,4.32-24.56,0-14.89-3.16-26.52-9.49-34.89-6.32-8.36-15.53-12.54-27.62-12.54s-22.28,4.11-28.88,12.33c-6.61,8.22-9.91,19.5-9.91,33.83s3.16,26.53,9.49,34.89c6.32,8.36,15.6,12.54,27.83,12.54,8.29,0,15.35-1.86,21.19-5.59Z"/>
        <path class="cls-1" d="M390.3,223.4c-10.61-12.72-15.91-29.76-15.91-51.12,0-17.29,2.95-31.3,8.85-42.05,5.9-10.75,13.74-18.48,23.5-23.19,9.77-4.71,20.76-7.06,32.99-7.06,8.57,0,16.44,1.02,23.61,3.06,7.17,2.04,14.33,5.16,21.5,9.38l-11.23,22.13c-10.03-6.46-20.91-9.7-32.63-9.7-23.88,0-35.82,15.25-35.82,45.74,0,15.18,3.32,26.7,9.96,34.57,6.64,7.87,16.03,11.8,28.18,11.8,6.22,0,11.65-.81,16.32-2.42,4.66-1.61,9.54-3.9,14.62-6.85l11.65,21.08c-7.59,4.5-15,7.9-22.24,10.22-7.24,2.32-14.93,3.48-23.08,3.48-22.91,0-39.67-6.36-50.28-19.08Z"/>
        <path class="cls-1" d="M565.59,167.44l56.92,70.41v1.69h-36.81l-53.2-67.67v67.67h-29.09V102.93h29.09v63.24l53-63.24h34.06v1.69l-53.96,62.82Z"/>
        <path class="cls-1" d="M755.94,102.93v1.69l-50.59,78v56.92h-29.09v-56.07l-49.33-78.84v-1.69h33.73l30.78,52.7,32.04-52.7h32.46Z"/>
      </g>
    </g>
  </g>
</svg>