<?xml version="1.0" encoding="UTF-8"?>
<svg id="Layer_2" data-name="Layer 2" xmlns="http://www.w3.org/2000/svg" xmlns:xlink="http://www.w3.org/1999/xlink" viewBox="0 0 324.55 68.19">
  <defs>
    <style>
      .cls-1 {
        fill: url(#linear-gradient-3);
      }

      .cls-2 {
        fill: url(#linear-gradient-2);
      }

      .cls-3 {
        fill: url(#linear-gradient);
      }

      .cls-4 {
        fill: none;
        stroke: #0d365e;
        stroke-miterlimit: 10;
        stroke-width: .25px;
      }

      .cls-5 {
        fill: #0d365e;
      }
    </style>
    <linearGradient id="linear-gradient" x1="270.93" y1="92.04" x2="167.96" y2="-42.44" gradientUnits="userSpaceOnUse">
      <stop offset="0" stop-color="#c3ad95"/>
      <stop offset="1" stop-color="#fff"/>
    </linearGradient>
    <linearGradient id="linear-gradient-2" x1="270.93" y1="92.04" x2="167.96" y2="-42.44" xlink:href="#linear-gradient"/>
    <linearGradient id="linear-gradient-3" x1="292.36" y1="75.63" x2="189.4" y2="-58.85" xlink:href="#linear-gradient"/>
  </defs>
  <g id="Layer_1-2" data-name="Layer 1">
    <g>
      <polygon class="cls-5" points="0 0 0 66.72 44.9 66.72 44.9 63.13 3.6 63.13 3.6 3.59 159.39 3.59 159.39 63.13 118.08 63.13 118.08 66.72 162.99 66.72 162.99 0 0 0"/>
      <g>
        <path class="cls-5" d="M50.75,68.06v-6.46h2.81c.41,0,.76.07,1.06.21.3.14.54.34.7.6.17.26.25.56.25.91v.11c0,.39-.09.7-.28.94-.18.24-.41.42-.68.53v.17c.25.01.44.1.57.25.14.16.2.36.2.62v2.11h-1.22v-1.94c0-.15-.04-.27-.12-.36-.08-.09-.2-.14-.38-.14h-1.7v2.44h-1.22ZM51.97,64.52h1.46c.29,0,.52-.08.68-.24.16-.16.24-.36.24-.62v-.09c0-.26-.08-.47-.24-.62-.16-.16-.39-.24-.68-.24h-1.46v1.81Z"/>
        <path class="cls-5" d="M57.32,68.06v-6.46h4.15v1.11h-2.94v1.54h2.68v1.11h-2.68v1.6h2.99v1.11h-4.21Z"/>
        <path class="cls-5" d="M62.73,68.06l1.7-6.46h2.12l1.7,6.46h-1.26l-.35-1.42h-2.31l-.35,1.42h-1.26ZM64.62,65.51h1.74l-.78-3.15h-.17l-.78,3.15Z"/>
        <path class="cls-5" d="M69.76,68.06v-6.46h1.22v5.35h2.95v1.11h-4.17Z"/>
        <path class="cls-5" d="M78.31,68.06v-6.46h4.15v1.11h-2.94v1.54h2.68v1.11h-2.68v1.6h2.99v1.11h-4.21Z"/>
        <path class="cls-5" d="M86.4,68.19c-.5,0-.94-.09-1.32-.27-.38-.18-.68-.43-.9-.77-.22-.33-.32-.73-.32-1.2v-.26h1.2v.26c0,.39.12.68.36.87.24.19.57.29.98.29s.73-.08.94-.25c.21-.17.31-.38.31-.64,0-.18-.05-.32-.15-.43-.1-.11-.25-.2-.44-.27s-.43-.14-.71-.2l-.21-.05c-.44-.1-.82-.22-1.14-.37-.32-.15-.56-.35-.73-.6-.17-.25-.25-.57-.25-.96s.09-.73.28-1.01c.19-.28.45-.5.79-.65.34-.15.74-.23,1.2-.23s.87.08,1.23.24c.36.16.64.39.85.7.21.31.31.7.31,1.17v.28h-1.2v-.28c0-.25-.05-.44-.14-.6-.1-.15-.23-.26-.41-.33-.18-.07-.39-.11-.64-.11-.37,0-.64.07-.82.21-.18.14-.26.33-.26.57,0,.16.04.3.12.41.08.11.21.2.37.28.17.07.38.14.64.19l.21.05c.46.1.86.22,1.2.38.34.15.61.36.8.61.19.25.29.58.29.97s-.1.74-.3,1.04c-.2.3-.48.53-.85.7-.37.17-.8.25-1.3.25Z"/>
        <path class="cls-5" d="M91.79,68.06v-5.35h-1.88v-1.11h4.98v1.11h-1.88v5.35h-1.22Z"/>
        <path class="cls-5" d="M95.42,68.06l1.7-6.46h2.12l1.7,6.46h-1.26l-.35-1.42h-2.31l-.35,1.42h-1.26ZM97.31,65.51h1.74l-.78-3.15h-.17l-.78,3.15Z"/>
        <path class="cls-5" d="M103.36,68.06v-5.35h-1.88v-1.11h4.98v1.11h-1.88v5.35h-1.22Z"/>
        <path class="cls-5" d="M108.03,68.06v-6.46h4.15v1.11h-2.94v1.54h2.68v1.11h-2.68v1.6h2.99v1.11h-4.21Z"/>
      </g>
      <g>
        <path class="cls-5" d="M41.56,46.34v.33h-6.52l-6.68-9.69h-2.24v9.69h-5.67v-26.61h8.91c2.35,0,4.32.36,5.89,1.09,1.57.73,2.74,1.71,3.51,2.96.77,1.25,1.15,2.66,1.15,4.25,0,1.86-.47,3.47-1.4,4.83-.93,1.36-2.3,2.36-4.11,3.02l7.15,10.14ZM26.12,32.58h2.56c1.68,0,2.97-.31,3.88-.94.91-.63,1.36-1.67,1.36-3.12,0-1.26-.41-2.2-1.22-2.83-.81-.63-1.94-.94-3.4-.94h-3.19v7.84Z"/>
        <path class="cls-5" d="M49.14,45.48c-1.99-1.18-3.48-2.81-4.5-4.91-1.01-2.09-1.52-4.52-1.52-7.29,0-3.07.62-5.63,1.85-7.7,1.23-2.07,2.87-3.6,4.91-4.6,2.04-1,4.31-1.5,6.8-1.5,2.85,0,5.26.59,7.25,1.77,1.98,1.18,3.48,2.81,4.48,4.91,1,2.09,1.5,4.52,1.5,7.29,0,3.07-.61,5.63-1.83,7.7-1.22,2.07-2.85,3.6-4.89,4.6-2.04,1-4.31,1.5-6.8,1.5-2.85,0-5.26-.59-7.25-1.77ZM60.52,41.39c1.14-.73,1.98-1.77,2.55-3.12.56-1.36.84-2.95.84-4.78,0-2.9-.62-5.17-1.85-6.8-1.23-1.63-3.03-2.44-5.38-2.44s-4.34.8-5.63,2.4c-1.29,1.6-1.93,3.8-1.93,6.59s.62,5.17,1.85,6.8c1.23,1.63,3.04,2.44,5.42,2.44,1.62,0,2.99-.36,4.13-1.09Z"/>
        <path class="cls-5" d="M76.04,43.53c-2.07-2.48-3.1-5.8-3.1-9.96,0-3.37.57-6.1,1.72-8.19,1.15-2.09,2.68-3.6,4.58-4.52,1.9-.92,4.05-1.38,6.43-1.38,1.67,0,3.2.2,4.6.6,1.4.4,2.79,1.01,4.19,1.83l-2.19,4.31c-1.95-1.26-4.07-1.89-6.36-1.89-4.65,0-6.98,2.97-6.98,8.91,0,2.96.65,5.2,1.94,6.74,1.29,1.53,3.12,2.3,5.49,2.3,1.21,0,2.27-.16,3.18-.47.91-.31,1.86-.76,2.85-1.33l2.27,4.11c-1.48.88-2.92,1.54-4.33,1.99-1.41.45-2.91.68-4.5.68-4.46,0-7.73-1.24-9.8-3.72Z"/>
        <path class="cls-5" d="M110.19,32.62l11.09,13.72v.33h-7.17l-10.36-13.18v13.18h-5.67v-26.61h5.67v12.32l10.33-12.32h6.64v.33l-10.51,12.24Z"/>
        <path class="cls-5" d="M147.28,20.05v.33l-9.86,15.2v11.09h-5.67v-10.92l-9.61-15.36v-.33h6.57l6,10.27,6.24-10.27h6.32Z"/>
      </g>
    </g>
    <g id="_50_Years" data-name="50 Years">
      <g>
        <path class="cls-3" d="M234.01,54.09c-2.98.3-5.97-.61-8.3-2.43-1.71-1.34-3.04-3.14-3.8-5.16h-1.85c.82,2.57,2.43,4.87,4.56,6.54,2.68,2.11,6.14,3.15,9.55,2.8,3.38-.31,6.6-1.95,8.85-4.52,2.27-2.55,3.52-5.93,3.36-9.36-.08-3.38-1.52-6.72-3.97-9.11-2.43-2.41-5.73-3.86-9.13-3.92-3.42-.1-6.8,1.13-9.35,3.41-1.81,1.6-3.15,3.69-3.88,5.97h1.86c.67-1.78,1.77-3.4,3.2-4.67,2.22-1.98,5.14-3.05,8.13-2.96,2.96.05,5.81,1.3,7.94,3.41,2.14,2.1,3.38,4.99,3.46,7.93.14,3-.95,5.93-2.92,8.15-1.97,2.23-4.76,3.66-7.7,3.93Z"/>
        <path class="cls-2" d="M214.47,46.51c.95,4.24,3.41,8.12,6.84,10.78,3.73,2.94,8.63,4.41,13.36,3.92,4.74-.43,9.28-2.75,12.42-6.32,2.31-2.61,3.88-5.88,4.46-9.32.21-1.25.29-2.51.24-3.78-.02-.77-.08-1.52-.2-2.27-.03-.18-.05-.36-.09-.53-.39-2.15-1.16-4.22-2.26-6.1-.82-1.42-1.83-2.72-3.01-3.87-3.36-3.36-8.03-5.41-12.79-5.49-4.75-.16-9.54,1.59-13.08,4.78-2.95,2.6-5.03,6.16-5.88,10h1.8c.82-3.35,2.67-6.42,5.24-8.7,3.23-2.88,7.55-4.47,11.87-4.32,4.33.07,8.55,1.92,11.61,4.98,2.51,2.46,4.2,5.72,4.8,9.17.03.15.05.28.07.43.09.65.15,1.32.17,1.98.2,4.32-1.39,8.67-4.26,11.89-2.85,3.25-6.96,5.34-11.26,5.73-4.31.44-8.74-.88-12.13-3.56-3.02-2.34-5.21-5.7-6.11-9.4h-1.81Z"/>
        <path class="cls-1" d="M269.7,49.68c-.64-.5-1.25-1.02-1.83-1.6-3.88-3.87-6.11-9.24-6.09-14.71-.01-5.48,2.21-10.85,6.09-14.72,3.87-3.88,9.24-6.1,14.71-6.09,5.48,0,10.85,2.21,14.72,6.09,3.88,3.87,6.1,9.24,6.09,14.72,0,5-1.85,9.92-5.14,13.68h2.26c2.98-3.9,4.64-8.75,4.63-13.68.01-5.94-2.4-11.77-6.61-15.96-4.18-4.21-10.02-6.63-15.96-6.61-5.93-.01-11.77,2.4-15.96,6.61-4.2,4.18-6.62,10.02-6.61,15.96-.01,5.93,2.4,11.77,6.61,15.95.72.72,1.48,1.38,2.28,1.99l-1.62,3.33c-1.15-.83-2.24-1.74-3.24-2.74-2.43-2.43-4.36-5.33-5.68-8.5-.67-1.59-1.16-3.23-1.49-4.91-.02-.1-.03-.2-.05-.29-.31-1.59-.46-3.2-.46-4.82,0-3.44.68-6.86,2-10.03,1.32-3.17,3.25-6.07,5.68-8.5,2.43-2.43,5.33-4.37,8.5-5.68,3.17-1.32,6.59-1.99,10.03-2,3.43,0,6.86.68,10.03,2,3.16,1.31,6.08,3.25,8.5,5.68,2.43,2.44,4.38,5.33,5.68,8.5,1.32,3.17,2.01,6.6,2.01,10.03s-.69,6.86-2.01,10.03c-.52,1.26-1.14,2.49-1.85,3.65h2.03c.55-.96,1.03-1.95,1.45-2.98,1.41-3.39,2.13-7.05,2.13-10.7,0-3.66-.73-7.32-2.13-10.71-1.4-3.37-3.47-6.48-6.06-9.06-2.59-2.59-5.68-4.66-9.07-6.06-3.38-1.41-7.04-2.13-10.7-2.13-3.67,0-7.32.73-10.71,2.13-3.38,1.39-6.48,3.47-9.07,6.06-2.59,2.59-4.66,5.69-6.06,9.06-1.18,2.85-1.87,5.89-2.06,8.96-.83-1.67-1.85-3.23-3.05-4.67.4-1.94.98-3.85,1.75-5.68,1.57-3.83,3.92-7.33,6.85-10.26,2.93-2.93,6.43-5.27,10.26-6.85,3.82-1.59,7.96-2.41,12.1-2.41s8.27.82,12.1,2.41c3.82,1.58,7.32,3.92,10.24,6.85,2.93,2.93,5.28,6.43,6.85,10.26,1.6,3.82,2.41,7.96,2.41,12.1s-.8,8.27-2.41,12.09c-.22.54-.46,1.06-.7,1.59h1.94c.14-.3.27-.6.4-.91,1.67-4.03,2.54-8.42,2.54-12.76s-.86-8.74-2.54-12.77c-1.67-4.04-4.15-7.74-7.24-10.82-3.08-3.08-6.77-5.55-10.81-7.22-4.04-1.68-8.43-2.54-12.77-2.54-4.36,0-8.73.86-12.77,2.54-4.04,1.67-7.73,4.15-10.82,7.22-3.08,3.08-5.56,6.78-7.23,10.82-.64,1.54-1.16,3.14-1.57,4.76-.05-.05-.1-.11-.16-.16-2.16-2.15-4.72-3.88-7.54-5.1-2.8-1.22-5.89-1.89-8.92-1.95-3.04-.09-6.12.41-8.99,1.46-.22.08-.43.16-.65.26l.93-7.27h28.68v-1.75h-28.89c-.11,0-.22,0-.33.03-.21.06-.42.14-.59.27-.35.27-.57.68-.6,1.11l-1.06,8.44c-1.41.7-2.75,1.54-4,2.52l1.47-11.64c.08-.67.24-1.34.56-1.93.32-.59.78-1.11,1.31-1.52.55-.4,1.17-.68,1.84-.82.32-.08.66-.1,1-.11h29.3v-1.75h-29.5c-.45,0-.9.05-1.33.15-.86.19-1.69.56-2.41,1.1-.7.54-1.29,1.23-1.72,2.01-.43.78-.66,1.65-.75,2.53l-1.74,13.68h0c-1.74,1.66-3.22,3.6-4.4,5.71l2.54-20.07c.19-1.34.59-2.63,1.26-3.77.66-1.15,1.55-2.17,2.59-2.97,1.06-.8,2.29-1.38,3.58-1.7.64-.17,1.3-.27,1.96-.29.35,0,.68-.02,1.01,0h28.92V.02h-28.94c-.4,0-.79,0-1.19.03-.77.04-1.54.17-2.3.36-1.48.4-2.89,1.07-4.11,2-1.22.93-2.25,2.11-3.03,3.43-.77,1.32-1.25,2.82-1.47,4.36l-3.58,28.11h1.81c.7-3.85,2.45-7.49,4.97-10.47.63-.74,1.3-1.44,2.03-2.11.06-.04.12-.1.18-.16,1.19-1.05,2.48-1.98,3.86-2.77.62-.34,1.25-.67,1.9-.96.49-.23,1-.43,1.5-.62,2.67-.98,5.52-1.43,8.34-1.35,2.82.06,5.66.69,8.27,1.81,2.61,1.13,4.99,2.75,7,4.74.34.32.65.66.96,1.01.54.59,1.03,1.21,1.49,1.86,1.93,2.71,3.27,5.86,3.85,9.16.02.11.04.23.06.35.36,1.79.88,3.56,1.59,5.25.11.25.21.5.33.73,1.37,3.1,3.34,5.94,5.73,8.33,1.14,1.14,2.39,2.18,3.71,3.11l-1.61,3.32c-1.67-1.13-3.25-2.42-4.67-3.84-1.65-1.64-3.11-3.46-4.33-5.43-.43-.66-.83-1.36-1.2-2.06-.16.61-.34,1.21-.57,1.8-.06.16-.12.3-.18.45-.96,2.5-2.36,4.82-4.15,6.82-3.73,4.26-9.15,7.03-14.81,7.53-5.63.57-11.49-1.16-15.93-4.68-4.3-3.32-7.33-8.29-8.31-13.66h-1.78c.98,5.92,4.28,11.38,9,15.04,4.1,3.25,9.34,5.08,14.56,5.15.3.01.6.01.91,0,.57-.01,1.14-.06,1.72-.12,6.1-.55,11.94-3.53,15.96-8.12,1.64-1.85,2.99-3.94,3.99-6.2,1.14,1.67,2.45,3.26,3.88,4.69,1.57,1.56,3.3,2.96,5.15,4.19l-2.7,5.58h1.95l9.54-19.68h-1.95l-1.28,2.63Z"/>
        <polygon class="cls-5" points="276.87 57.12 278.08 57.12 278.08 54.76 280.18 51.51 280.18 51.44 278.83 51.44 277.5 53.63 276.22 51.44 274.82 51.44 274.82 51.51 276.87 54.79 276.87 57.12"/>
        <polygon class="cls-5" points="284.7 52.45 284.7 51.44 280.91 51.44 280.91 57.12 284.75 57.12 284.75 56.1 282.12 56.1 282.12 54.73 284.21 54.73 284.35 53.73 282.12 53.73 282.12 52.45 284.7 52.45"/>
        <path class="cls-5" d="M285.23,57.05v.07h1.31l.45-1.36h2.1l.45,1.36h1.32v-.07l-2.04-5.61h-1.55l-2.04,5.61ZM288.02,52.6l.73,2.16h-1.44l.71-2.16Z"/>
        <path class="cls-5" d="M296.1,57.05l-1.53-2.16c.39-.14.68-.35.88-.64.2-.29.3-.63.3-1.03,0-.34-.08-.64-.25-.91-.16-.27-.41-.48-.75-.63-.34-.15-.76-.23-1.26-.23h-1.9v5.68h1.21v-2.07h.48l1.43,2.07h1.39v-.07ZM294.18,53.91c-.19.13-.47.2-.83.2h-.55v-1.67h.68c.31,0,.55.07.72.2.17.14.26.34.26.61,0,.31-.1.53-.29.67Z"/>
        <path class="cls-5" d="M300.78,55.51c0-.36-.08-.66-.24-.88-.16-.23-.35-.4-.58-.52-.23-.12-.53-.25-.9-.4l-.19-.07c-.28-.1-.5-.2-.65-.28-.15-.08-.26-.16-.31-.24-.06-.08-.09-.17-.09-.27,0-.16.07-.28.21-.38.14-.09.35-.14.63-.14.25,0,.48.04.7.11s.46.2.74.37l.57-.86c-.32-.21-.65-.37-1-.48-.35-.11-.68-.16-1.01-.16-.36,0-.7.06-1.03.17-.32.11-.58.28-.79.52-.2.24-.31.53-.31.89,0,.32.07.59.2.8.14.21.32.38.54.52.23.13.53.27.9.42l.2.08c.31.12.54.22.7.3.16.08.26.16.32.25.06.08.09.19.09.32,0,.21-.1.37-.28.47-.19.11-.45.16-.78.16-.52,0-1.05-.17-1.59-.52l-.56.87c.61.46,1.36.68,2.23.68.43,0,.82-.06,1.16-.19.34-.13.61-.32.81-.58.2-.26.3-.58.3-.96Z"/>
        <path class="cls-5" d="M307.8,51.7c-.42-.25-.94-.38-1.55-.38-.53,0-1.01.11-1.45.32-.43.21-.78.54-1.05.98-.26.44-.39.99-.39,1.64,0,.59.11,1.11.32,1.55.22.45.54.8.96,1.05.42.25.94.38,1.55.38.53,0,1.01-.11,1.45-.32.43-.21.78-.54,1.04-.98.26-.44.39-.99.39-1.64,0-.59-.11-1.11-.32-1.55-.21-.45-.53-.8-.95-1.05ZM307.62,55.33c-.12.29-.3.51-.54.67-.24.16-.54.23-.88.23-.51,0-.89-.17-1.16-.52-.26-.35-.39-.83-.39-1.45s.14-1.06.41-1.41.67-.51,1.2-.51.88.17,1.15.52c.26.35.4.83.4,1.45,0,.39-.06.73-.18,1.02Z"/>
        <polygon class="cls-5" points="313.82 52.45 313.82 51.44 310.02 51.44 310.02 57.12 311.23 57.12 311.23 54.87 313.32 54.87 313.47 53.87 311.23 53.87 311.23 52.45 313.82 52.45"/>
        <polygon class="cls-5" points="276.55 63.49 278.64 63.49 278.78 62.49 276.55 62.49 276.55 61.21 279.13 61.21 279.13 60.2 275.34 60.2 275.34 65.88 279.18 65.88 279.18 64.86 276.55 64.86 276.55 63.49"/>
        <polygon class="cls-5" points="284.82 60.2 283.45 60.2 282.32 62.07 281.23 60.2 279.75 60.2 281.54 62.98 279.66 65.88 281.03 65.88 282.29 63.8 283.43 65.88 284.92 65.88 283.04 62.88 284.82 60.2"/>
        <path class="cls-5" d="M288.73,64.84c-.19.07-.42.1-.68.1-.51,0-.9-.16-1.17-.49-.27-.33-.41-.81-.41-1.44,0-1.27.5-1.9,1.49-1.9.49,0,.94.14,1.36.4l.47-.92c-.3-.18-.6-.31-.89-.39-.3-.08-.62-.13-.98-.13-.51,0-.97.1-1.37.29-.41.2-.73.52-.98.96-.24.45-.37,1.03-.37,1.75,0,.89.22,1.6.66,2.13.44.53,1.14.79,2.09.79.34,0,.66-.05.96-.14.3-.1.61-.24.92-.43l-.48-.88c-.21.12-.41.22-.61.28Z"/>
        <polygon class="cls-5" points="291.76 63.49 293.85 63.49 293.99 62.49 291.76 62.49 291.76 61.21 294.34 61.21 294.34 60.2 290.55 60.2 290.55 65.88 294.39 65.88 294.39 64.86 291.76 64.86 291.76 63.49"/>
        <polygon class="cls-5" points="296.6 60.2 295.39 60.2 295.39 65.88 299.21 65.88 299.21 64.81 296.6 64.81 296.6 60.2"/>
        <polygon class="cls-5" points="301.17 60.2 299.96 60.2 299.96 65.88 303.78 65.88 303.78 64.81 301.17 64.81 301.17 60.2"/>
        <polygon class="cls-5" points="305.73 63.49 307.82 63.49 307.96 62.49 305.73 62.49 305.73 61.21 308.31 61.21 308.31 60.2 304.52 60.2 304.52 65.88 308.36 65.88 308.36 64.86 305.73 64.86 305.73 63.49"/>
        <path class="cls-5" d="M313.19,64.03c-.05-.11-.1-.21-.17-.33-.07-.11-.14-.23-.22-.35-.08-.12-.14-.2-.16-.24l-1.94-2.91h-1.33v5.68h1.21v-3.84c.1.22.2.41.31.58.11.17.23.37.39.61l1.79,2.65h1.35v-5.68h-1.21v3.83Z"/>
        <path class="cls-5" d="M318.89,64.84c-.19.07-.42.1-.68.1-.51,0-.9-.16-1.17-.49-.27-.33-.41-.81-.41-1.44,0-1.27.5-1.9,1.49-1.9.49,0,.94.14,1.36.4l.47-.92c-.3-.18-.6-.31-.89-.39-.3-.08-.62-.13-.98-.13-.51,0-.97.1-1.37.29-.41.2-.73.52-.98.96-.24.45-.37,1.03-.37,1.75,0,.89.22,1.6.66,2.13.44.53,1.14.79,2.09.79.34,0,.66-.05.96-.14.3-.1.61-.24.92-.43l-.48-.88c-.21.12-.41.22-.61.28Z"/>
        <polygon class="cls-5" points="321.92 64.86 321.92 63.49 324.01 63.49 324.15 62.49 321.92 62.49 321.92 61.21 324.51 61.21 324.51 60.2 320.71 60.2 320.71 65.88 324.55 65.88 324.55 64.86 321.92 64.86"/>
      </g>
    </g>
    <line class="cls-4" x1="185.96" y1="12.55" x2="185.96" y2="55.64"/>
  </g>
</svg>